#!OML:ASF H:\LiuWeirdWalks\Patient Classification 1\Patient 1\Session 1\male.ASF
:FULLY-SPECIFIED
:DEGREES
624
root 2.79499 17.7913 36.9166 3.27739 5.88828 6.84505
lowerback -2.95637 0.263411 -9.7222
upperback -0.337844 0.676464 -0.609009
thorax 1.20684 0.294101 4.84704
lowerneck -25.9275 -1.18669 1.15601
upperneck 15.2203 -1.35206 -3.14407
head 8.95655 -0.932758 -1.47834
rclavicle 2.11038e-014 -5.96354e-015
rhumerus -30.3935 -27.1847 -68.1413
rradius 17.6665
rwrist 10.0622
rhand -11.0657 -0.560135
rfingers 7.12502
rthumb 14.9572 -30
lclavicle 2.11038e-014 -5.96354e-015
lhumerus -34.1351 8.28314 79.7549
lradius 25.4949
lwrist 10.251
lhand -15.7587 -4.11989
lfingers 7.12502
lthumb 10.4329 25.6013
rfemur -14.6386 -2.91274 12.2367
rtibia 40.302
rfoot -20.1388 -16.1474
rtoes -0.545174
lfemur -8.36965 -3.74014 -27.8673
ltibia 26.8033
lfoot -13.0633 11.2163
ltoes -10.1562
625
root 2.79317 17.7931 36.9288 3.39784 5.95212 6.85064
lowerback -3.05381 -0.151057 -10.3383
upperback -0.503213 0.142583 -0.311527
thorax 1.1693 0.0324926 5.48472
lowerneck -25.4567 -0.692144 1.67819
upperneck 15.0145 -0.784198 -3.54235
head 8.81807 -0.678695 -1.60982
rclavicle 1.41541e-014 -4.57205e-015
rhumerus -30.5219 -26.3593 -68.3793
rradius 17.3787
rwrist 10.3629
rhand -10.9961 -0.641415
rfingers 7.12502
rthumb 15.0242 -30.0763
lclavicle 1.41541e-014 -4.57205e-015
lhumerus -34.519 9.09286 79.5718
lradius 26.2065
lwrist 11.2082
lhand -16.0101 -4.11294
lfingers 7.12502
lthumb 10.1904 25.6203
rfemur -14.7283 -2.8699 12.2618
rtibia 40.3445
rfoot -20.1966 -16.2631
rtoes -0.525818
lfemur -8.43428 -3.77929 -27.8448
ltibia 26.7443
lfoot -13.0291 11.141
ltoes -10.1641
626
root 2.79029 17.7957 36.9381 3.55615 5.98741 6.86401
lowerback -3.11409 -0.361807 -10.6732
upperback -0.627635 -0.128875 -0.17064
thorax 1.12004 -0.0969815 5.8105
lowerneck -25.346 -0.453405 1.93339
upperneck 14.9567 -0.516325 -3.70503
head 8.78673 -0.555741 -1.66679
rclavicle 5.69099e-015 -3.35946e-014
rhumerus -30.7847 -26.0476 -68.4896
rradius 17.1936
rwrist 10.5187
rhand -10.938 -0.691774
rfingers 7.12502
rthumb 15.0802 -30.1225
lclavicle 5.69099e-015 -3.35946e-014
lhumerus -34.5968 9.31448 79.5596
lradius 26.8436
lwrist 12.015
lhand -16.2282 -4.11065
lfingers 7.12502
lthumb 9.98 25.6328
rfemur -14.8558 -2.75806 12.2911
rtibia 40.3264
rfoot -20.2009 -16.4199
rtoes -0.503064
lfemur -8.60015 -3.8136 -27.8243
ltibia 26.7759
lfoot -13.0215 11.0913
ltoes -10.1825
627
root 2.7868 17.7991 36.9455 3.73622 5.9985 6.8429
lowerback -3.1636 -0.37614 -10.6886
upperback -0.734874 -0.147876 -0.171425
thorax 1.03879 -0.0980224 5.8176
lowerneck -25.4271 -0.462526 1.9229
upperneck 14.9962 -0.540019 -3.63411
head 8.81312 -0.559912 -1.64524
rclavicle -1.00441e-015 2.50469e-014
rhumerus -31.2428 -26.1903 -68.4593
rradius 17.113
rwrist 10.4907
rhand -10.9086 -0.719943
rfingers 7.12502
rthumb 15.1086 -30.1485
lclavicle -1.00441e-015 2.50469e-014
lhumerus -34.4601 8.96901 79.6978
lradius 27.4305
lwrist 12.6404
lhand -16.4062 -4.10141
lfingers 7.12502
lthumb 9.80828 25.6502
rfemur -15.0154 -2.5949 12.3666
rtibia 40.2841
rfoot -20.1773 -16.6061
rtoes -0.471043
lfemur -8.82766 -3.84435 -27.7627
ltibia 26.8556
lfoot -13.0268 11.0633
ltoes -10.2008
628
root 2.78338 17.8032 36.9524 3.90836 5.9845 6.70265
lowerback -3.21042 -0.380768 -10.5799
upperback -0.852972 -0.159524 -0.136346
thorax 0.94328 -0.0940636 5.79298
lowerneck -25.4867 -0.472511 1.90786
upperneck 15.0397 -0.562353 -3.56622
head 8.83749 -0.563887 -1.62364
rclavicle -3.45544e-015 -1.80894e-014
rhumerus -31.6981 -26.2648 -68.4479
rradius 17.072
rwrist 10.372
rhand -10.8669 -0.726902
rfingers 7.12502
rthumb 15.1487 -30.1524
lclavicle -3.45544e-015 -1.80894e-014
lhumerus -34.3613 8.63351 79.8357
lradius 28.0339
lwrist 13.0562
lhand -16.5276 -4.05094
lfingers 7.12502
lthumb 9.69113 25.7061
rfemur -15.1707 -2.38289 12.5781
rtibia 40.2045
rfoot -20.1327 -16.8165
rtoes -0.457547
lfemur -9.08838 -3.86997 -27.5718
ltibia 26.9879
lfoot -13.0575 11.062
ltoes -10.2002
